<svg width="512" height="512" xmlns="http://www.w3.org/2000/svg">
  <defs>
    <linearGradient id="grad1" x1="0%" y1="0%" x2="100%" y2="100%">
      <stop offset="0%" style="stop-color:#4ECDC4;stop-opacity:1" />
      <stop offset="100%" style="stop-color:#44A08D;stop-opacity:1" />
    </linearGradient>
    <linearGradient id="grad2" x1="0%" y1="0%" x2="100%" y2="100%">
      <stop offset="0%" style="stop-color:#A8E6CF;stop-opacity:1" />
      <stop offset="100%" style="stop-color:#4ECDC4;stop-opacity:1" />
    </linearGradient>
  </defs>
  <rect width="512" height="512" fill="url(#grad1)"/>
  <circle cx="256" cy="256" r="120" fill="url(#grad2)" opacity="0.9"/>
  <circle cx="256" cy="200" r="40" fill="#FFFFFF" opacity="0.9"/>
  <circle cx="230" cy="270" r="25" fill="#FFFFFF" opacity="0.8"/>
  <circle cx="282" cy="270" r="25" fill="#FFFFFF" opacity="0.8"/>
  <path d="M 220 300 Q 256 330 292 300" stroke="#FFFFFF" stroke-width="8" fill="none" opacity="0.8"/>
  <rect x="180" y="360" width="152" height="40" rx="20" fill="url(#grad2)" opacity="0.9"/>
  <text x="256" y="385" font-family="Arial, sans-serif" font-size="24" font-weight="bold" fill="#44A08D" text-anchor="middle">NFT #3</text>
  <polygon points="100,100 130,150 70,150" fill="#A8E6CF" opacity="0.6"/>
  <polygon points="412,100 442,150 382,150" fill="#A8E6CF" opacity="0.6"/>
  <polygon points="100,412 130,362 70,362" fill="#A8E6CF" opacity="0.6"/>
  <polygon points="412,412 442,362 382,362" fill="#A8E6CF" opacity="0.6"/>
</svg>

