<svg width="512" height="512" xmlns="http://www.w3.org/2000/svg">
  <defs>
    <linearGradient id="grad1" x1="0%" y1="0%" x2="100%" y2="100%">
      <stop offset="0%" style="stop-color:#fa709a;stop-opacity:1" />
      <stop offset="100%" style="stop-color:#fee140;stop-opacity:1" />
    </linearGradient>
    <linearGradient id="grad2" x1="0%" y1="0%" x2="100%" y2="100%">
      <stop offset="0%" style="stop-color:#30cfd0;stop-opacity:1" />
      <stop offset="100%" style="stop-color:#330867;stop-opacity:1" />
    </linearGradient>
  </defs>
  <rect width="512" height="512" fill="url(#grad1)"/>
  <polygon points="256,150 356,300 256,350 156,300" fill="url(#grad2)" opacity="0.9"/>
  <polygon points="256,200 306,280 256,320 206,280" fill="#FFFFFF" opacity="0.8"/>
  <circle cx="256" cy="250" r="40" fill="url(#grad1)" opacity="0.9"/>
  <rect x="180" y="380" width="152" height="40" rx="20" fill="url(#grad2)" opacity="0.9"/>
  <text x="256" y="405" font-family="Arial, sans-serif" font-size="24" font-weight="bold" fill="#FFFFFF" text-anchor="middle">NFT #6</text>
  <rect x="80" y="80" width="60" height="60" rx="15" fill="#FFFFFF" opacity="0.3" transform="rotate(45 110 110)"/>
  <rect x="372" y="80" width="60" height="60" rx="15" fill="#FFFFFF" opacity="0.3" transform="rotate(45 402 110)"/>
  <rect x="80" y="372" width="60" height="60" rx="15" fill="#FFFFFF" opacity="0.3" transform="rotate(45 110 402)"/>
  <rect x="372" y="372" width="60" height="60" rx="15" fill="#FFFFFF" opacity="0.3" transform="rotate(45 402 402)"/>
</svg>

