<svg width="512" height="512" xmlns="http://www.w3.org/2000/svg">
  <defs>
    <linearGradient id="grad1" x1="0%" y1="0%" x2="100%" y2="100%">
      <stop offset="0%" style="stop-color:#ff6e7f;stop-opacity:1" />
      <stop offset="100%" style="stop-color:#bfe9ff;stop-opacity:1" />
    </linearGradient>
    <linearGradient id="grad2" x1="0%" y1="0%" x2="100%" y2="100%">
      <stop offset="0%" style="stop-color:#ee0979;stop-opacity:1" />
      <stop offset="100%" style="stop-color:#ff6a00;stop-opacity:1" />
    </linearGradient>
  </defs>
  <rect width="512" height="512" fill="url(#grad1)"/>
  <ellipse cx="256" cy="200" rx="90" ry="80" fill="url(#grad2)" opacity="0.95"/>
  <ellipse cx="256" cy="220" rx="60" ry="50" fill="#FFFFFF" opacity="0.9"/>
  <circle cx="240" cy="210" r="15" fill="#EE0979"/>
  <circle cx="272" cy="210" r="15" fill="#EE0979"/>
  <path d="M 235 235 Q 256 250 277 235" stroke="#EE0979" stroke-width="6" fill="none"/>
  <path d="M 256 170 Q 240 180 256 190 Q 272 180 256 170" stroke="#FFFFFF" stroke-width="8" fill="none" opacity="0.8"/>
  <rect x="180" y="350" width="152" height="50" rx="25" fill="url(#grad2)" opacity="0.95"/>
  <text x="256" y="380" font-family="Arial, sans-serif" font-size="26" font-weight="bold" fill="#FFFFFF" text-anchor="middle">NFT #10</text>
  <rect x="70" y="70" width="70" height="70" rx="15" fill="#FFFFFF" opacity="0.3" transform="rotate(45 105 105)"/>
  <rect x="372" y="70" width="70" height="70" rx="15" fill="#FFFFFF" opacity="0.3" transform="rotate(45 407 105)"/>
  <rect x="70" y="372" width="70" height="70" rx="15" fill="#FFFFFF" opacity="0.3" transform="rotate(45 105 407)"/>
  <rect x="372" y="372" width="70" height="70" rx="15" fill="#FFFFFF" opacity="0.3" transform="rotate(45 407 407)"/>
</svg>

