<svg width="512" height="512" xmlns="http://www.w3.org/2000/svg">
  <defs>
    <linearGradient id="grad1" x1="0%" y1="0%" x2="100%" y2="100%">
      <stop offset="0%" style="stop-color:#ffecd2;stop-opacity:1" />
      <stop offset="100%" style="stop-color:#fcb69f;stop-opacity:1" />
    </linearGradient>
    <linearGradient id="grad2" x1="0%" y1="0%" x2="100%" y2="100%">
      <stop offset="0%" style="stop-color:#ff8177;stop-opacity:1" />
      <stop offset="100%" style="stop-color:#ff867a;stop-opacity:1" />
      <stop offset="100%" style="stop-color:#ff8c7f;stop-opacity:1" />
    </linearGradient>
  </defs>
  <rect width="512" height="512" fill="url(#grad1)"/>
  <polygon points="256,120 336,220 256,320 176,220" fill="url(#grad2)" opacity="0.95"/>
  <polygon points="256,160 296,230 256,280 216,230" fill="#FFFFFF" opacity="0.9"/>
  <circle cx="256" cy="220" r="35" fill="url(#grad1)" opacity="0.95"/>
  <rect x="180" y="360" width="152" height="45" rx="22" fill="url(#grad2)" opacity="0.95"/>
  <text x="256" y="388" font-family="Arial, sans-serif" font-size="24" font-weight="bold" fill="#FFFFFF" text-anchor="middle">NFT #8</text>
  <polygon points="90,90 110,110 90,130 70,110" fill="#FFFFFF" opacity="0.4"/>
  <polygon points="402,90 422,110 402,130 382,110" fill="#FFFFFF" opacity="0.4"/>
  <polygon points="90,382 110,402 90,422 70,402" fill="#FFFFFF" opacity="0.4"/>
  <polygon points="402,382 422,402 402,422 382,402" fill="#FFFFFF" opacity="0.4"/>
</svg>

